<svg xmlns="http://www.w3.org/2000/svg" width="1122.52" height="793.701" viewBox="0 0 297 210"><g transform="translate(0 -87)"><rect width="200" height="200" x="48.5" y="92" ry="26.727" fill="#f2f2f2"/><path d="M89.642 169.168a101.4 101.4 0 0 0 50.494 88.05 101.4 101.4 0 0 0 6.227 3.21h60.996v-90.906h-16.318zm68.012 95.076a8.027 8.027 0 0 0-8.045 8.045 8.027 8.027 0 0 0 8.045 8.045h49.705v-16.09zm-50.66-160.577c-9.54-.1-19.378 9.814-13.624 19.06l22.425 42.716 37.06.13-35.75-56.549c-2.69-3.746-6.378-5.318-10.11-5.357z" fill="#005d99"/><path d="M162.39 190.21c-.509 0-.933.17-1.271.508-.34.339-.508.734-.508 1.186v27.535c0 .536.268.96.804 1.27.565.31 1.215.467 1.949.467.762 0 1.412-.156 1.949-.467.536-.31.804-.734.804-1.27v-11.057h3.559l3.256 6.329c.057.14.125.281.213.428l.056.094 2.49 4.84c.28.544.632.919 1.054 1.125l3.473 5.844-7.328 11.946c-.226.396-.339.735-.339 1.017 0 .734.396 1.384 1.186 1.948.82.537 1.624.805 2.415.805.678 0 1.186-.296 1.525-.89l6.184-10.886 6.228 10.887c.31.593.804.89 1.482.89.82 0 1.624-.27 2.415-.806.79-.564 1.186-1.214 1.186-1.948 0-.31-.1-.65-.297-1.017l-7.328-11.946 7.074-11.903c.255-.424.382-.82.382-1.186 0-.706-.382-1.313-1.144-1.822-.735-.508-1.525-.762-2.372-.762-.791 0-1.412.395-1.864 1.186l-5.762 10.378-5.76-10.378a2.631 2.631 0 0 0-.473-.64l-2.36-4.38c1.694-.508 3.035-1.468 4.023-2.88 1.017-1.412 1.526-3.277 1.526-5.592 0-5.903-3.347-8.854-10.04-8.854zm3.727 4.829h4.66c3.022 0 4.533 1.51 4.533 4.532 0 2.994-1.511 4.49-4.533 4.49h-4.66z" style="line-height:1.25" font-weight="400" font-size="25.343" font-family="sans-serif" letter-spacing="0" word-spacing="0" fill="#fff"/></g></svg>